<?xml version="1.0" encoding="UTF-8"?>
<!DOCTYPE svg
  PUBLIC '-//W3C//DTD SVG 1.1//EN'
  'http://www.w3.org/Graphics/SVG/1.1/DTD/svg11.dtd'>
<svg version="1.1" xmlns="http://www.w3.org/2000/svg" width="56.600mm" height="23.822mm">
    <!--Autogenerated with python-barcode 0.14.0-->
    <g id="barcode_group">
        <rect width="100%" height="100%" style="fill:white"/>
        <rect x="6.000mm" y="1.000mm" width="0.200mm" height="15.000mm" style="fill:black;"/>
        <rect x="6.800mm" y="1.000mm" width="0.200mm" height="15.000mm" style="fill:black;"/>
        <rect x="7.200mm" y="1.000mm" width="0.600mm" height="15.000mm" style="fill:black;"/>
        <rect x="8.000mm" y="1.000mm" width="0.600mm" height="15.000mm" style="fill:black;"/>
        <rect x="8.800mm" y="1.000mm" width="0.200mm" height="15.000mm" style="fill:black;"/>
        <rect x="9.200mm" y="1.000mm" width="0.200mm" height="15.000mm" style="fill:black;"/>
        <rect x="9.600mm" y="1.000mm" width="0.200mm" height="15.000mm" style="fill:black;"/>
        <rect x="10.400mm" y="1.000mm" width="0.200mm" height="15.000mm" style="fill:black;"/>
        <rect x="10.800mm" y="1.000mm" width="0.600mm" height="15.000mm" style="fill:black;"/>
        <rect x="11.600mm" y="1.000mm" width="0.600mm" height="15.000mm" style="fill:black;"/>
        <rect x="12.400mm" y="1.000mm" width="0.200mm" height="15.000mm" style="fill:black;"/>
        <rect x="12.800mm" y="1.000mm" width="0.600mm" height="15.000mm" style="fill:black;"/>
        <rect x="14.000mm" y="1.000mm" width="0.600mm" height="15.000mm" style="fill:black;"/>
        <rect x="14.800mm" y="1.000mm" width="0.200mm" height="15.000mm" style="fill:black;"/>
        <rect x="15.200mm" y="1.000mm" width="0.200mm" height="15.000mm" style="fill:black;"/>
        <rect x="15.600mm" y="1.000mm" width="0.200mm" height="15.000mm" style="fill:black;"/>
        <rect x="16.000mm" y="1.000mm" width="0.200mm" height="15.000mm" style="fill:black;"/>
        <rect x="16.800mm" y="1.000mm" width="0.200mm" height="15.000mm" style="fill:black;"/>
        <rect x="17.200mm" y="1.000mm" width="0.600mm" height="15.000mm" style="fill:black;"/>
        <rect x="18.000mm" y="1.000mm" width="0.600mm" height="15.000mm" style="fill:black;"/>
        <rect x="18.800mm" y="1.000mm" width="0.600mm" height="15.000mm" style="fill:black;"/>
        <rect x="19.600mm" y="1.000mm" width="0.200mm" height="15.000mm" style="fill:black;"/>
        <rect x="20.400mm" y="1.000mm" width="0.200mm" height="15.000mm" style="fill:black;"/>
        <rect x="20.800mm" y="1.000mm" width="0.200mm" height="15.000mm" style="fill:black;"/>
        <rect x="21.200mm" y="1.000mm" width="0.600mm" height="15.000mm" style="fill:black;"/>
        <rect x="22.000mm" y="1.000mm" width="0.200mm" height="15.000mm" style="fill:black;"/>
        <rect x="22.400mm" y="1.000mm" width="0.600mm" height="15.000mm" style="fill:black;"/>
        <rect x="23.600mm" y="1.000mm" width="0.600mm" height="15.000mm" style="fill:black;"/>
        <rect x="24.400mm" y="1.000mm" width="0.200mm" height="15.000mm" style="fill:black;"/>
        <rect x="24.800mm" y="1.000mm" width="0.200mm" height="15.000mm" style="fill:black;"/>
        <rect x="25.200mm" y="1.000mm" width="0.200mm" height="15.000mm" style="fill:black;"/>
        <rect x="25.600mm" y="1.000mm" width="0.600mm" height="15.000mm" style="fill:black;"/>
        <rect x="26.800mm" y="1.000mm" width="0.200mm" height="15.000mm" style="fill:black;"/>
        <rect x="27.200mm" y="1.000mm" width="0.600mm" height="15.000mm" style="fill:black;"/>
        <rect x="28.000mm" y="1.000mm" width="0.200mm" height="15.000mm" style="fill:black;"/>
        <rect x="28.400mm" y="1.000mm" width="0.600mm" height="15.000mm" style="fill:black;"/>
        <rect x="29.200mm" y="1.000mm" width="0.600mm" height="15.000mm" style="fill:black;"/>
        <rect x="30.400mm" y="1.000mm" width="0.200mm" height="15.000mm" style="fill:black;"/>
        <rect x="30.800mm" y="1.000mm" width="0.200mm" height="15.000mm" style="fill:black;"/>
        <rect x="31.200mm" y="1.000mm" width="0.200mm" height="15.000mm" style="fill:black;"/>
        <rect x="31.600mm" y="1.000mm" width="0.200mm" height="15.000mm" style="fill:black;"/>
        <rect x="32.000mm" y="1.000mm" width="0.600mm" height="15.000mm" style="fill:black;"/>
        <rect x="33.200mm" y="1.000mm" width="0.200mm" height="15.000mm" style="fill:black;"/>
        <rect x="33.600mm" y="1.000mm" width="0.600mm" height="15.000mm" style="fill:black;"/>
        <rect x="34.400mm" y="1.000mm" width="0.200mm" height="15.000mm" style="fill:black;"/>
        <rect x="34.800mm" y="1.000mm" width="0.200mm" height="15.000mm" style="fill:black;"/>
        <rect x="35.200mm" y="1.000mm" width="0.200mm" height="15.000mm" style="fill:black;"/>
        <rect x="36.000mm" y="1.000mm" width="0.200mm" height="15.000mm" style="fill:black;"/>
        <rect x="36.400mm" y="1.000mm" width="0.600mm" height="15.000mm" style="fill:black;"/>
        <rect x="37.200mm" y="1.000mm" width="0.600mm" height="15.000mm" style="fill:black;"/>
        <rect x="38.000mm" y="1.000mm" width="0.200mm" height="15.000mm" style="fill:black;"/>
        <rect x="38.400mm" y="1.000mm" width="0.600mm" height="15.000mm" style="fill:black;"/>
        <rect x="39.600mm" y="1.000mm" width="0.200mm" height="15.000mm" style="fill:black;"/>
        <rect x="40.000mm" y="1.000mm" width="0.600mm" height="15.000mm" style="fill:black;"/>
        <rect x="40.800mm" y="1.000mm" width="0.200mm" height="15.000mm" style="fill:black;"/>
        <rect x="41.200mm" y="1.000mm" width="0.600mm" height="15.000mm" style="fill:black;"/>
        <rect x="42.000mm" y="1.000mm" width="0.200mm" height="15.000mm" style="fill:black;"/>
        <rect x="42.800mm" y="1.000mm" width="0.600mm" height="15.000mm" style="fill:black;"/>
        <rect x="43.600mm" y="1.000mm" width="0.200mm" height="15.000mm" style="fill:black;"/>
        <rect x="44.000mm" y="1.000mm" width="0.200mm" height="15.000mm" style="fill:black;"/>
        <rect x="44.400mm" y="1.000mm" width="0.200mm" height="15.000mm" style="fill:black;"/>
        <rect x="44.800mm" y="1.000mm" width="0.600mm" height="15.000mm" style="fill:black;"/>
        <rect x="46.000mm" y="1.000mm" width="0.200mm" height="15.000mm" style="fill:black;"/>
        <rect x="46.400mm" y="1.000mm" width="0.200mm" height="15.000mm" style="fill:black;"/>
        <rect x="46.800mm" y="1.000mm" width="0.600mm" height="15.000mm" style="fill:black;"/>
        <rect x="47.600mm" y="1.000mm" width="0.200mm" height="15.000mm" style="fill:black;"/>
        <rect x="48.400mm" y="1.000mm" width="0.200mm" height="15.000mm" style="fill:black;"/>
        <rect x="48.800mm" y="1.000mm" width="0.600mm" height="15.000mm" style="fill:black;"/>
        <rect x="49.600mm" y="1.000mm" width="0.600mm" height="15.000mm" style="fill:black;"/>
        <rect x="50.400mm" y="1.000mm" width="0.200mm" height="15.000mm" style="fill:black;"/>
        <text x="28.300mm" y="19.000mm" style="fill:black;font-size:8pt;text-anchor:middle;">767169397952</text>
        <text x="28.300mm" y="22.822mm" style="fill:black;font-size:8pt;text-anchor:middle;"> PHP 100.00 - Gio Inlove</text>
    </g>
</svg>
