<?xml version="1.0" encoding="UTF-8"?>
<!DOCTYPE svg
  PUBLIC '-//W3C//DTD SVG 1.1//EN'
  'http://www.w3.org/Graphics/SVG/1.1/DTD/svg11.dtd'>
<svg version="1.1" xmlns="http://www.w3.org/2000/svg" width="42.110mm" height="26.411mm">
    <!--Autogenerated with python-barcode 0.15.1-->
    <g id="barcode_group">
        <rect width="100%" height="100%" style="fill:white"/>
        <rect x="10.000mm" y="1.000mm" width="0.330mm" height="15.000mm" style="fill:black;"/>
        <rect x="10.660mm" y="1.000mm" width="0.330mm" height="15.000mm" style="fill:black;"/>
        <rect x="11.980mm" y="1.000mm" width="0.330mm" height="15.000mm" style="fill:black;"/>
        <rect x="12.640mm" y="1.000mm" width="0.660mm" height="15.000mm" style="fill:black;"/>
        <rect x="13.630mm" y="1.000mm" width="0.330mm" height="15.000mm" style="fill:black;"/>
        <rect x="14.950mm" y="1.000mm" width="0.660mm" height="15.000mm" style="fill:black;"/>
        <rect x="15.940mm" y="1.000mm" width="0.330mm" height="15.000mm" style="fill:black;"/>
        <rect x="16.600mm" y="1.000mm" width="1.320mm" height="15.000mm" style="fill:black;"/>
        <rect x="18.250mm" y="1.000mm" width="0.330mm" height="15.000mm" style="fill:black;"/>
        <rect x="18.910mm" y="1.000mm" width="1.320mm" height="15.000mm" style="fill:black;"/>
        <rect x="20.560mm" y="1.000mm" width="0.330mm" height="15.000mm" style="fill:black;"/>
        <rect x="21.220mm" y="1.000mm" width="0.330mm" height="15.000mm" style="fill:black;"/>
        <rect x="21.880mm" y="1.000mm" width="0.660mm" height="15.000mm" style="fill:black;"/>
        <rect x="22.870mm" y="1.000mm" width="0.660mm" height="15.000mm" style="fill:black;"/>
        <rect x="24.190mm" y="1.000mm" width="0.660mm" height="15.000mm" style="fill:black;"/>
        <rect x="25.510mm" y="1.000mm" width="0.660mm" height="15.000mm" style="fill:black;"/>
        <rect x="26.500mm" y="1.000mm" width="0.330mm" height="15.000mm" style="fill:black;"/>
        <rect x="27.820mm" y="1.000mm" width="0.330mm" height="15.000mm" style="fill:black;"/>
        <rect x="28.810mm" y="1.000mm" width="0.330mm" height="15.000mm" style="fill:black;"/>
        <rect x="30.130mm" y="1.000mm" width="0.330mm" height="15.000mm" style="fill:black;"/>
        <rect x="31.120mm" y="1.000mm" width="0.330mm" height="15.000mm" style="fill:black;"/>
        <rect x="31.780mm" y="1.000mm" width="0.330mm" height="15.000mm" style="fill:black;"/>
        <text x="21.055mm" y="24.000mm" style="fill:black;font-size:8pt;text-anchor:middle;">94662177</text>
    </g>
</svg>
